:SAMPLES-PER-SECOND 30
:FULLY-SPECIFIED
:DEGREES
164
root  -85.9909 41.6344 -0.269456 70.5837 86.8853 67.5446
RightUpLeg  -2.78002 -19.3353 -7.17883
RightLeg  12.884 -30.5047 0.0742025
RightFoot  -8.09823 -0.0864332 1.11106
RightToes  -4.65663e-010 0 -3.6325e-017
Spine  3.99529 0.0627351 -2.58524
Spine1  5.97121 -0.97892 4.43072
HEad  0.190821 4.60828 -3.8496
LeftShoulder1  6.37893 -9.64387 -42.1116
LeftArm  -11.8888 20.0047 -30.6093
LeftForeArm  39.263 -11.2063 -4.24945
LeftHand  -0.244104 0.0205437 5.32207
RightShoulder  4.01662 6.90095 32.6586
RightArm  -5.00008 -19.8309 36.1274
RightForeArm  5.72901 20.3332 4.7007
RightHand  -1.97826 5.79639 -20.6246
LeftUpLeg  -1.01053 2.38503 -1.47428
LeftLeg  2.43721 6.3886 -4.07711
LeftFoot  -4.02272 -0.0534933 1.21042
LeftToes  -5.82109e-011 -4.83791e-012 -1.00937e-011
165
root  -86.2079 41.6151 -0.488346 98.0179 87.8752 95.1711
RightUpLeg  -2.80793 -17.6701 -6.13725
RightLeg  12.3064 -26.9846 0.543175
RightFoot  -9.08345 -0.0901258 1.47822
RightToes  -4.65663e-010 0 -3.6325e-017
Spine  3.6229 0.330554 -1.07504
Spine1  6.07803 -0.49985 3.64052
HEad  0.335028 2.65789 -4.03173
LeftShoulder1  6.09353 -9.40862 -40.8678
LeftArm  -11.7758 19.6331 -28.6214
LeftForeArm  39.9127 -9.52709 -4.26018
LeftHand  -0.244104 0.0205437 5.32207
RightShoulder  3.72337 6.50246 31.264
RightArm  -9.97389 -19.8234 34.6425
RightForeArm  6.32465 19.7844 4.57415
RightHand  -2.09286 6.68411 -20.236
LeftUpLeg  -1.71384 2.78119 -0.914433
LeftLeg  3.51405 4.94516 -4.0682
LeftFoot  -4.54809 -0.0609668 1.47363
LeftToes  -5.82109e-011 -4.83791e-012 -1.00937e-011
166
root  -86.385 41.6119 -0.688044 119.961 88.282 117.839
RightUpLeg  -2.36587 -14.5903 -4.94816
RightLeg  11.2505 -20.5068 1.36282
RightFoot  -10.4192 -0.0872792 2.05628
RightToes  -4.65663e-010 0 -3.6325e-017
Spine  3.51053 0.719444 0.225794
Spine1  6.63025 0.0906093 2.82825
HEad  0.62999 2.57604 -4.22427
LeftShoulder1  5.6048 -8.90062 -38.96
LeftArm  -12.2276 19.0656 -26.6172
LeftForeArm  38.5717 -8.55676 -3.99638
LeftHand  -0.244104 0.0205437 5.32207
RightShoulder  3.51492 6.27515 29.9759
RightArm  -13.8378 -18.793 31.5232
RightForeArm  6.84729 18.0204 4.48158
RightHand  -2.1901 7.30129 -20.1515
LeftUpLeg  -1.45583 3.27934 -0.413455
LeftLeg  3.94126 3.92135 -4.24314
LeftFoot  -4.70265 -0.059045 1.50957
LeftToes  -5.82109e-011 -4.83791e-012 -1.00937e-011
167
root  -86.5453 41.6283 -0.842343 136.923 88.113 135.504
RightUpLeg  -2.18124 -11.3494 -3.79035
RightLeg  10.645 -14.3059 1.60202
RightFoot  -11.3133 -0.0778394 2.10954
RightToes  -4.65663e-010 0 -3.6325e-017
Spine  3.57952 0.839088 0.331532
Spine1  6.84099 0.177703 2.96771
HEad  1.29671 3.30335 -4.21409
LeftShoulder1  4.98978 -8.11495 -36.8105
LeftArm  -12.9232 18.7356 -24.1997
LeftForeArm  35.6331 -8.32024 -3.67233
LeftHand  -0.244104 0.0205437 5.32207
RightShoulder  3.22642 5.97704 28.0224
RightArm  -17.1644 -17.0614 28.0445
RightForeArm  6.37401 15.4539 4.31259
RightHand  -2.34551 7.64703 -20.9838
LeftUpLeg  -0.985868 3.32189 -0.388544
LeftLeg  3.91381 3.17519 -4.27679
LeftFoot  -4.31089 -0.0547792 1.31441
LeftToes  -5.82109e-011 -4.83791e-012 -1.00937e-011
168
root  -86.6903 41.6493 -0.971655 151.104 87.5338 150.135
RightUpLeg  -2.28232 -8.97052 -2.75926
RightLeg  10.49 -10.5466 1.37316
RightFoot  -11.1372 -0.0760464 1.03339
RightToes  -4.65663e-010 0 -3.6325e-017
Spine  3.9201 0.506922 -0.282663
Spine1  6.06957 -0.421232 4.06381
HEad  2.34124 4.07232 -4.46741
LeftShoulder1  4.38558 -7.10587 -35.219
LeftArm  -13.0854 18.7176 -20.5467
LeftForeArm  32.9464 -8.60883 -3.51243
LeftHand  -0.244104 0.0205437 5.32207
RightShoulder  2.8331 5.67436 24.7222
RightArm  -19.827 -15.5223 25.0549
RightForeArm  4.73198 13.2715 4.00217
RightHand  -2.44077 7.77608 -21.6004
LeftUpLeg  -0.776297 3.06343 -0.613872
LeftLeg  3.89421 2.72691 -4.09528
LeftFoot  -3.98243 -0.0676704 1.42501
LeftToes  -5.82109e-011 -4.83791e-012 -1.00937e-011
169
root  -86.804 41.6563 -1.09611 159.574 86.7723 158.936
RightUpLeg  -2.40123 -7.87495 -2.1878
RightLeg  10.6024 -9.03129 1.06999
RightFoot  -10.142 -0.0608066 -0.697059
RightToes  -4.65663e-010 0 -3.6325e-017
Spine  3.99894 0.354655 -0.052639
Spine1  5.08927 -0.435153 3.61358
HEad  3.90621 4.0466 -4.10076
LeftShoulder1  3.94345 -6.83554 -32.0955
LeftArm  -12.8845 18.3175 -16.9703
LeftForeArm  32.1954 -8.39627 -3.36875
LeftHand  -0.244104 0.0205437 5.32207
RightShoulder  2.36056 4.80316 22.1539
RightArm  -21.3498 -14.7244 21.3662
RightForeArm  2.96099 12.224 3.72595
RightHand  -2.39194 7.92021 -20.9645
LeftUpLeg  -0.74033 2.78554 -0.899822
LeftLeg  4.04306 2.39253 -3.88845
LeftFoot  -3.88814 -0.0951491 1.82164
LeftToes  -5.82109e-011 -4.83791e-012 -1.00937e-011
170
root  -86.8757 41.6396 -1.21451 161.45 86.0851 161.117
RightUpLeg  -2.4932 -7.95714 -2.26677
RightLeg  11.0034 -8.5598 0.874908
RightFoot  -9.1626 -0.024042 -2.03308
RightToes  -4.65663e-010 0 -3.6325e-017
Spine  3.66261 0.519268 0.662296
Spine1  4.40596 0.13766 2.02066
HEad  5.85965 3.70666 -3.19526
LeftShoulder1  3.62646 -7.20491 -27.7216
LeftArm  -13.1471 17.362 -13.9505
LeftForeArm  31.9381 -7.80189 -3.06354
LeftHand  -0.244104 0.0205437 5.32207
RightShoulder  1.90562 3.63148 20.3132
RightArm  -21.8117 -14.327 16.8894
RightForeArm  1.48776 11.7324 3.59162
RightHand  -2.33325 8.18443 -20.0876
LeftUpLeg  -0.70471 2.55821 -1.27801
LeftLeg  4.29556 1.9783 -3.78683
LeftFoot  -3.85648 -0.107658 1.98798
LeftToes  -5.82109e-011 -4.83791e-012 -1.00937e-011
171
root  -86.9131 41.6145 -1.3304 160.989 85.5975 160.915
RightUpLeg  -2.48289 -8.64093 -2.72346
RightLeg  11.4275 -8.32177 0.863953
RightFoot  -8.62145 -0.0006131 -2.44265
RightToes  -4.65663e-010 0 -3.6325e-017
Spine  3.32506 0.539761 0.815872
Spine1  3.81722 0.296756 1.46206
HEad  7.57454 3.49671 -2.77019
LeftShoulder1  3.20291 -6.98039 -24.289
LeftArm  -14.1253 16.2801 -10.8468
LeftForeArm  30.161 -8.01864 -2.69886
LeftHand  -0.244104 0.0205437 5.32207
RightShoulder  1.48584 2.74128 17.1568
RightArm  -22.087 -13.5728 13.4013
RightForeArm  -0.46472 11.1967 3.51938
RightHand  -2.39308 8.29931 -20.4176
LeftUpLeg  -0.597848 2.37608 -1.67178
LeftLeg  4.50492 1.61757 -3.75135
LeftFoot  -3.88204 -0.107283 1.95438
LeftToes  -5.82109e-011 -4.83791e-012 -1.00937e-011
172
root  -86.9338 41.6071 -1.44769 161.559 85.2954 161.734
RightUpLeg  -2.19376 -9.20452 -3.15104
RightLeg  11.4401 -8.19028 1.04854
RightFoot  -8.30706 0.00472415 -2.30093
RightToes  -4.65663e-010 0 -3.6325e-017
Spine  2.93409 0.533882 1.12232
Spine1  3.46893 0.421068 0.876117
HEad  8.81733 2.47314 -2.37085
LeftShoulder1  2.71646 -6.48443 -20.7383
LeftArm  -15.6439 15.2692 -8.50134
LeftForeArm  27.8034 -9.22117 -2.36527
LeftHand  -0.244104 0.0205437 5.32207
RightShoulder  1.08693 1.67897 14.0866
RightArm  -22.5613 -12.3933 10.5117
RightForeArm  -3.4797 10.8552 3.52444
RightHand  -2.50227 8.12987 -21.5687
LeftUpLeg  -0.359359 2.21742 -1.94418
LeftLeg  4.51499 1.53033 -3.69753
LeftFoot  -3.94389 -0.12428 2.19711
LeftToes  -5.82109e-011 -4.83791e-012 -1.00937e-011
173
root  -86.9514 41.6185 -1.54938 162.688 85.1216 163.106
RightUpLeg  -1.75182 -9.33815 -3.41521
RightLeg  11.1231 -8.22647 1.28448
RightFoot  -8.05534 0.00976027 -2.23853
RightToes  -4.65663e-010 0 -3.6325e-017
Spine  2.62109 0.425416 1.38425
Spine1  3.21685 0.411129 0.397743
HEad  9.92287 2.01708 -2.10335
LeftShoulder1  2.2238 -5.75167 -17.3338
LeftArm  -17.6055 14.4565 -6.74519
LeftForeArm  26.6306 -11.2352 -2.00378
LeftHand  -0.244104 0.0205437 5.32207
RightShoulder  0.789397 0.742415 11.468
RightArm  -23.264 -10.9012 7.99226
RightForeArm  -6.00834 10.6907 3.52928
RightHand  -2.59006 8.07863 -22.3756
LeftUpLeg  -0.0773834 2.06208 -2.13162
LeftLeg  4.40549 1.62163 -3.5987
LeftFoot  -3.90132 -0.15645 2.68789
LeftToes  -5.82109e-011 -4.83791e-012 -1.00937e-011
174
root  -86.97 41.6263 -1.61804 162.978 85.0353 163.554
RightUpLeg  -1.50559 -9.25067 -3.57516
RightLeg  10.9411 -8.36883 1.39807
RightFoot  -7.94904 0.0170904 -2.39314
RightToes  -4.65663e-010 0 -3.6325e-017
Spine  2.45465 0.327959 1.27024
Spine1  2.80535 0.356088 0.228656
HEad  11.2194 2.55695 -1.78361
LeftShoulder1  1.81301 -5.05809 -14.2323
LeftArm  -20.1949 13.8028 -5.33086
LeftForeArm  27.0319 -13.5523 -1.61954
LeftHand  -0.244104 0.0205437 5.32207
RightShoulder  0.590581 0.0241583 9.40256
RightArm  -23.9008 -9.41649 5.67726
RightForeArm  -7.28983 10.637 3.51346
RightHand  -2.68662 8.37551 -22.6981
LeftUpLeg  0.0303707 1.93328 -2.31496
LeftLeg  4.44442 1.67895 -3.48311
LeftFoot  -3.79392 -0.173587 2.96262
LeftToes  -5.82109e-011 -4.83791e-012 -1.00937e-011
175
root  -86.9843 41.6212 -1.66646 163.123 85.0517 163.768
RightUpLeg  -1.44921 -9.16888 -3.66945
RightLeg  10.9462 -8.49502 1.44888
RightFoot  -7.93324 0.0184697 -2.42458
RightToes  -4.65663e-010 0 -3.6325e-017
Spine  2.32948 0.318328 0.914073
Spine1  2.32455 0.330873 0.375092
HEad  12.4021 2.78199 -1.40235
LeftShoulder1  1.50952 -4.49197 -11.6988
LeftArm  -22.8907 12.9983 -3.99642
LeftForeArm  27.5346 -15.523 -1.4977
LeftHand  -0.244104 0.0205437 5.32207
RightShoulder  0.442261 -0.582556 7.59548
RightArm  -24.4422 -8.11597 3.80714
RightForeArm  -8.08176 10.6585 3.5007
RightHand  -2.83912 8.84087 -23.1825
LeftUpLeg  -0.0462415 1.90205 -2.42701
LeftLeg  4.70793 1.70158 -3.37462
LeftFoot  -3.83437 -0.170157 2.94522
LeftToes  -5.82109e-011 -4.83791e-012 -1.00937e-011
176
root  -86.9839 41.6162 -1.71549 163.975 85.2562 164.703
RightUpLeg  -1.28334 -9.08392 -3.6986
RightLeg  10.7927 -8.43234 1.60096
RightFoot  -7.82399 0.0141647 -2.18656
RightToes  -4.65663e-010 0 -3.6325e-017
Spine  2.12231 0.388203 0.724909
Spine1  2.10172 0.382393 0.500732
HEad  13.1497 1.90883 -1.08744
LeftShoulder1  1.26522 -3.91391 -9.66984
LeftArm  -24.428 11.6715 -2.93931
LeftForeArm  26.8131 -16.3194 -1.58291
LeftHand  -0.244104 0.0205437 5.32207
RightShoulder  0.313148 -1.2099 5.92076
RightArm  -25.0435 -6.92029 2.63196
RightForeArm  -9.03171 10.6954 3.50162
RightHand  -3.04526 9.33563 -23.9971
LeftUpLeg  -0.0556814 1.96957 -2.39506
LeftLeg  4.94441 1.86182 -3.28549
LeftFoot  -4.02424 -0.165913 2.97475
LeftToes  -5.82109e-011 -4.83791e-012 -1.00937e-011
177
root  -86.9686 41.6178 -1.75976 164.534 85.7115 165.381
RightUpLeg  -1.02714 -8.94606 -3.65995
RightLeg  10.4841 -8.09362 1.78524
RightFoot  -7.66155 0.0113815 -1.97172
RightToes  -4.65663e-010 0 -3.6325e-017
Spine  1.77925 0.500077 0.746059
Spine1  2.2658 0.514525 0.388587
HEad  13.7271 1.05776 -0.768893
LeftShoulder1  1.06102 -3.37355 -7.85414
LeftArm  -24.6074 9.96621 -2.47035
LeftForeArm  25.4113 -15.5378 -1.47914
LeftHand  -0.244104 0.0205437 5.32207
RightShoulder  0.219555 -1.74315 4.60808
RightArm  -25.5952 -5.7402 2.05761
RightForeArm  -9.82758 10.6185 3.51206
RightHand  -3.23876 9.83105 -24.6655
LeftUpLeg  0.0910002 2.06468 -2.28135
LeftLeg  4.99321 2.22286 -3.24646
LeftFoot  -4.17294 -0.172124 3.1485
LeftToes  -5.82109e-011 -4.83791e-012 -1.00937e-011
178
root  -86.9566 41.618 -1.78534 163.577 86.2945 164.486
RightUpLeg  -0.971816 -8.77718 -3.56097
RightLeg  10.3652 -7.68373 1.79901
RightFoot  -7.60173 0.0148745 -1.99336
RightToes  -4.65663e-010 0 -3.6325e-017
Spine  1.44984 0.582918 0.658907
Spine1  2.50185 0.62587 0.247188
HEad  14.5664 1.40506 -0.370082
LeftShoulder1  0.926849 -3.10236 -6.29239
LeftArm  -24.4142 8.52454 -2.4076
LeftForeArm  24.7272 -13.7762 -1.12054
LeftHand  -0.244104 0.0205437 5.32207
RightShoulder  0.185317 -1.93302 3.84337
RightArm  -25.7579 -4.64845 1.79789
RightForeArm  -9.89057 10.3633 3.53772
RightHand  -3.31311 10.0933 -24.7982
LeftUpLeg  0.211732 2.17901 -2.18763
LeftLeg  4.97097 2.60981 -3.27376
LeftFoot  -4.2169 -0.176346 3.23411
LeftToes  -5.82109e-011 -4.83791e-012 -1.00937e-011
